<svg width="500" height="500" viewBox="0 0 500 500" fill="none" xmlns="http://www.w3.org/2000/svg">
<g clip-path="url(#clip0)">
<rect width="500" height="500" fill="white"/>
<rect x="-91" y="-139" width="743" height="743" fill="black"/>
<path d="M27.873 447H25.0703V427.395H27.873V447ZM35.3926 447H32.5898V427.395H33.9844C34.8958 427.395 35.862 427.513 36.8828 427.75C37.9128 427.987 38.9609 428.329 40.0273 428.775C41.0938 429.222 42.1556 429.764 43.2129 430.402C44.2793 431.031 45.3092 431.747 46.3027 432.549C47.2962 433.351 48.2305 434.226 49.1055 435.174C49.9805 436.113 50.7643 437.115 51.457 438.182V427.395H54.2598V447H51.457C51.457 445.56 51.2064 444.174 50.7051 442.844C50.2038 441.504 49.5339 440.242 48.6953 439.057C47.8568 437.872 46.8906 436.783 45.7969 435.789C44.7031 434.786 43.5592 433.907 42.3652 433.15C41.1803 432.394 39.9863 431.774 38.7832 431.291C37.5801 430.799 36.4499 430.471 35.3926 430.307V447ZM79.498 447H66.8789C65.5208 447 64.2858 446.745 63.1738 446.234C62.0618 445.724 61.1094 445.027 60.3164 444.143C59.5326 443.258 58.9264 442.219 58.498 441.025C58.0697 439.831 57.8555 438.555 57.8555 437.197C57.8555 435.848 58.0697 434.581 58.498 433.396C58.9264 432.202 59.5326 431.163 60.3164 430.279C61.1094 429.386 62.0618 428.684 63.1738 428.174C64.2858 427.654 65.5208 427.395 66.8789 427.395H79.498V430.197H66.8789C65.9128 430.197 65.0423 430.384 64.2676 430.758C63.502 431.122 62.8503 431.624 62.3125 432.262C61.7839 432.891 61.3737 433.629 61.082 434.477C60.7995 435.324 60.6582 436.231 60.6582 437.197C60.6582 438.163 60.7995 439.075 61.082 439.932C61.3737 440.779 61.7839 441.522 62.3125 442.16C62.8503 442.789 63.502 443.286 64.2676 443.65C65.0423 444.015 65.9128 444.197 66.8789 444.197H79.498V447ZM103.902 427.395L103.875 437.197C103.875 438.109 103.757 438.984 103.52 439.822C103.292 440.652 102.964 441.431 102.535 442.16C102.116 442.88 101.605 443.541 101.004 444.143C100.411 444.735 99.7507 445.245 99.0215 445.674C98.3014 446.093 97.5267 446.421 96.6973 446.658C95.8678 446.886 95.002 447 94.0996 447H92.0352C91.1328 447 90.2624 446.886 89.4238 446.658C88.5944 446.421 87.8151 446.089 87.0859 445.66C86.3659 445.232 85.7096 444.721 85.1172 444.129C84.5247 443.527 84.0143 442.867 83.5859 442.146C83.1667 441.417 82.8385 440.638 82.6016 439.809C82.3737 438.97 82.2598 438.1 82.2598 437.197V427.395H85.0625V437.197C85.0625 438.163 85.2448 439.075 85.6094 439.932C85.974 440.779 86.4707 441.522 87.0996 442.16C87.7376 442.789 88.4805 443.286 89.3281 443.65C90.1758 444.015 91.0781 444.197 92.0352 444.197H94.0996C95.0658 444.197 95.9727 444.015 96.8203 443.65C97.668 443.286 98.4062 442.789 99.0352 442.16C99.6641 441.522 100.161 440.779 100.525 439.932C100.89 439.075 101.072 438.163 101.072 437.197V427.395H103.875H103.902ZM110.752 447H107.949V427.395H109.344C110.255 427.395 111.221 427.513 112.242 427.75C113.272 427.987 114.32 428.329 115.387 428.775C116.453 429.222 117.515 429.764 118.572 430.402C119.639 431.031 120.669 431.747 121.662 432.549C122.656 433.351 123.59 434.226 124.465 435.174C125.34 436.113 126.124 437.115 126.816 438.182V427.395H129.619V447H126.816C126.816 445.56 126.566 444.174 126.064 442.844C125.563 441.504 124.893 440.242 124.055 439.057C123.216 437.872 122.25 436.783 121.156 435.789C120.062 434.786 118.919 433.907 117.725 433.15C116.54 432.394 115.346 431.774 114.143 431.291C112.939 430.799 111.809 430.471 110.752 430.307V447ZM137.139 447H134.336V427.395H135.73C136.642 427.395 137.608 427.513 138.629 427.75C139.659 427.987 140.707 428.329 141.773 428.775C142.84 429.222 143.902 429.764 144.959 430.402C146.025 431.031 147.055 431.747 148.049 432.549C149.042 433.351 149.977 434.226 150.852 435.174C151.727 436.113 152.51 437.115 153.203 438.182V427.395H156.006V447H153.203C153.203 445.56 152.952 444.174 152.451 442.844C151.95 441.504 151.28 440.242 150.441 439.057C149.603 437.872 148.637 436.783 147.543 435.789C146.449 434.786 145.305 433.907 144.111 433.15C142.926 432.394 141.732 431.774 140.529 431.291C139.326 430.799 138.196 430.471 137.139 430.307V447ZM180.998 447H160.723V427.395H180.998V430.197H163.525V444.197H180.998V447ZM178.619 438.605H164.92V435.803H178.619V438.605ZM197.555 450.5H194.766V423.197H197.555V450.5ZM226.648 447H223.846V437.197C223.846 436.231 223.663 435.324 223.299 434.477C222.934 433.629 222.433 432.891 221.795 432.262C221.166 431.624 220.423 431.122 219.566 430.758C218.719 430.384 217.812 430.197 216.846 430.197H215.342V447H212.539V427.395H216.846C217.739 427.395 218.596 427.513 219.416 427.75C220.245 427.978 221.02 428.301 221.74 428.721C222.46 429.14 223.117 429.641 223.709 430.225C224.301 430.808 224.816 431.455 225.254 432.166C225.682 431.455 226.193 430.808 226.785 430.225C227.378 429.641 228.034 429.14 228.754 428.721C229.474 428.301 230.244 427.978 231.064 427.75C231.894 427.513 232.755 427.395 233.648 427.395H237.969V447H235.166V430.197H233.648C232.682 430.197 231.775 430.384 230.928 430.758C230.08 431.122 229.337 431.624 228.699 432.262C228.07 432.891 227.569 433.629 227.195 434.477C226.831 435.324 226.648 436.231 226.648 437.197V447ZM245.475 447H242.672V427.395H245.475V447ZM271.834 441.395C271.834 442.178 271.688 442.912 271.396 443.596C271.105 444.27 270.704 444.863 270.193 445.373C269.692 445.874 269.1 446.271 268.416 446.562C267.742 446.854 267.017 447 266.242 447H249.207V444.197H266.242C266.634 444.197 266.999 444.124 267.336 443.979C267.673 443.833 267.965 443.632 268.211 443.377C268.466 443.122 268.667 442.826 268.812 442.488C268.958 442.142 269.031 441.777 269.031 441.395C269.031 441.012 268.958 440.652 268.812 440.314C268.667 439.977 268.466 439.681 268.211 439.426C267.965 439.171 267.673 438.97 267.336 438.824C266.999 438.678 266.634 438.605 266.242 438.605H254.812C254.047 438.605 253.322 438.46 252.639 438.168C251.955 437.876 251.358 437.48 250.848 436.979C250.346 436.468 249.945 435.871 249.645 435.188C249.353 434.504 249.207 433.775 249.207 433C249.207 432.234 249.353 431.51 249.645 430.826C249.945 430.143 250.346 429.55 250.848 429.049C251.358 428.538 251.955 428.137 252.639 427.846C253.322 427.545 254.047 427.395 254.812 427.395H270.439V430.197H254.812C254.43 430.197 254.065 430.27 253.719 430.416C253.382 430.562 253.085 430.762 252.83 431.018C252.575 431.273 252.374 431.574 252.229 431.92C252.083 432.257 252.01 432.617 252.01 433C252.01 433.383 252.083 433.747 252.229 434.094C252.374 434.431 252.575 434.727 252.83 434.982C253.085 435.238 253.382 435.438 253.719 435.584C254.065 435.73 254.43 435.803 254.812 435.803H266.242C267.017 435.803 267.742 435.953 268.416 436.254C269.1 436.546 269.692 436.947 270.193 437.457C270.704 437.958 271.105 438.551 271.396 439.234C271.688 439.909 271.834 440.629 271.834 441.395ZM297.414 447H294.611V441.395H278.971V438.605H294.611V430.197H284.562C283.605 430.197 282.703 430.384 281.855 430.758C281.008 431.122 280.27 431.624 279.641 432.262C279.012 432.891 278.51 433.629 278.137 434.477C277.772 435.324 277.59 436.231 277.59 437.197V447H274.787V437.197C274.787 436.295 274.901 435.429 275.129 434.6C275.366 433.761 275.694 432.982 276.113 432.262C276.542 431.533 277.052 430.872 277.645 430.279C278.246 429.678 278.907 429.163 279.627 428.734C280.356 428.306 281.135 427.978 281.965 427.75C282.794 427.513 283.66 427.395 284.562 427.395H297.414V447ZM304.92 447H302.117V427.395H303.512C304.423 427.395 305.389 427.513 306.41 427.75C307.44 427.987 308.488 428.329 309.555 428.775C310.621 429.222 311.683 429.764 312.74 430.402C313.807 431.031 314.837 431.747 315.83 432.549C316.824 433.351 317.758 434.226 318.633 435.174C319.508 436.113 320.292 437.115 320.984 438.182V427.395H323.787V447H320.984C320.984 445.56 320.734 444.174 320.232 442.844C319.731 441.504 319.061 440.242 318.223 439.057C317.384 437.872 316.418 436.783 315.324 435.789C314.23 434.786 313.087 433.907 311.893 433.15C310.708 432.394 309.514 431.774 308.311 431.291C307.107 430.799 305.977 430.471 304.92 430.307V447ZM339.141 447H336.338V430.197H326.426V427.395H349.053V430.197H339.141V447ZM372.391 447H369.588V438.605H355.889V435.803H369.588V427.395H372.391V447ZM354.494 447H351.691V427.395H354.494V447ZM399.721 447H395.934L390.055 441.395H381.469V438.633H392.721C393.304 438.633 393.851 438.523 394.361 438.305C394.872 438.077 395.314 437.771 395.688 437.389C396.07 437.006 396.371 436.559 396.59 436.049C396.809 435.529 396.918 434.978 396.918 434.395C396.918 433.811 396.809 433.264 396.59 432.754C396.371 432.243 396.07 431.801 395.688 431.428C395.314 431.045 394.872 430.744 394.361 430.525C393.851 430.307 393.304 430.197 392.721 430.197H379.896V447H377.094V427.395H392.721C393.687 427.395 394.594 427.581 395.441 427.955C396.289 428.32 397.027 428.821 397.656 429.459C398.294 430.088 398.796 430.826 399.16 431.674C399.534 432.521 399.721 433.428 399.721 434.395C399.721 435.27 399.57 436.099 399.27 436.883C398.969 437.658 398.554 438.355 398.025 438.975C397.497 439.585 396.872 440.096 396.152 440.506C395.441 440.907 394.671 441.176 393.842 441.312L399.721 447ZM426.723 437.197C426.723 438.555 426.508 439.831 426.08 441.025C425.652 442.219 425.041 443.258 424.248 444.143C423.464 445.027 422.521 445.724 421.418 446.234C420.315 446.745 419.089 447 417.74 447H411.219C409.861 447 408.626 446.745 407.514 446.234C406.402 445.724 405.449 445.027 404.656 444.143C403.872 443.258 403.266 442.219 402.838 441.025C402.41 439.831 402.195 438.555 402.195 437.197C402.195 435.848 402.41 434.581 402.838 433.396C403.266 432.202 403.872 431.163 404.656 430.279C405.449 429.386 406.402 428.684 407.514 428.174C408.626 427.654 409.861 427.395 411.219 427.395H417.74C419.089 427.395 420.315 427.654 421.418 428.174C422.521 428.684 423.464 429.386 424.248 430.279C425.041 431.163 425.652 432.202 426.08 433.396C426.508 434.581 426.723 435.848 426.723 437.197ZM423.92 437.197C423.92 436.231 423.779 435.324 423.496 434.477C423.214 433.629 422.803 432.891 422.266 432.262C421.737 431.624 421.09 431.122 420.324 430.758C419.568 430.384 418.706 430.197 417.74 430.197H411.219C410.253 430.197 409.382 430.384 408.607 430.758C407.842 431.122 407.19 431.624 406.652 432.262C406.124 432.891 405.714 433.629 405.422 434.477C405.139 435.324 404.998 436.231 404.998 437.197C404.998 438.163 405.139 439.075 405.422 439.932C405.714 440.779 406.124 441.522 406.652 442.16C407.19 442.789 407.842 443.286 408.607 443.65C409.382 444.015 410.253 444.197 411.219 444.197H417.74C418.706 444.197 419.568 444.015 420.324 443.65C421.09 443.286 421.737 442.789 422.266 442.16C422.803 441.522 423.214 440.779 423.496 439.932C423.779 439.075 423.92 438.163 423.92 437.197ZM452.932 434.395C452.932 435.361 452.745 436.272 452.371 437.129C452.007 437.977 451.505 438.719 450.867 439.357C450.238 439.986 449.5 440.483 448.652 440.848C447.805 441.212 446.898 441.395 445.932 441.395H434.68V438.633H445.932C446.515 438.633 447.062 438.523 447.572 438.305C448.083 438.077 448.525 437.771 448.898 437.389C449.281 437.006 449.582 436.559 449.801 436.049C450.02 435.529 450.129 434.978 450.129 434.395C450.129 433.811 450.02 433.264 449.801 432.754C449.582 432.243 449.281 431.801 448.898 431.428C448.525 431.045 448.083 430.744 447.572 430.525C447.062 430.307 446.515 430.197 445.932 430.197H433.107V447H430.305V427.395H445.932C446.898 427.395 447.805 427.581 448.652 427.955C449.5 428.32 450.238 428.821 450.867 429.459C451.505 430.088 452.007 430.826 452.371 431.674C452.745 432.521 452.932 433.428 452.932 434.395ZM476.146 447H455.871V427.395H476.146V430.197H458.674V444.197H476.146V447ZM473.768 438.605H460.068V435.803H473.768V438.605Z" fill="#AC0E0D"/>
<path d="M240.833 177.834H77L158.917 319.667L240.833 177.834Z" fill="#AC0E0D" stroke="black"/>
<path d="M422.5 177.834H258.667L340.584 319.667L422.5 177.834Z" fill="#AC0E0D" stroke="black"/>
<path d="M206.625 177.917L165.667 248.834H199.667M288.542 177.917L329.5 248.834H299.833" stroke="black" stroke-width="2"/>
<path d="M206.625 177.917L247.583 107.001L288.541 177.917M199.666 248.834H299.833" stroke="#AC0E0D" stroke-width="2"/>
</g>
<defs>
<clipPath id="clip0">
<rect width="500" height="500" fill="white"/>
</clipPath>
</defs>
</svg>
