<svg width="500" height="500" viewBox="0 0 500 500" fill="none" xmlns="http://www.w3.org/2000/svg">
<g clip-path="url(#clip0)">
<rect width="500" height="500" fill="white"/>
<rect x="-91" y="-139" width="743" height="743" fill="black"/>
<path d="M72.7168 447H69.9141V427.395H72.7168V447ZM80.2363 447H77.4336V427.395H78.8281C79.7396 427.395 80.7057 427.513 81.7266 427.75C82.7565 427.987 83.8047 428.329 84.8711 428.775C85.9375 429.222 86.9993 429.764 88.0566 430.402C89.123 431.031 90.153 431.747 91.1465 432.549C92.14 433.351 93.0742 434.226 93.9492 435.174C94.8242 436.113 95.6081 437.115 96.3008 438.182V427.395H99.1035V447H96.3008C96.3008 445.56 96.0501 444.174 95.5488 442.844C95.0475 441.504 94.3776 440.242 93.5391 439.057C92.7005 437.872 91.7344 436.783 90.6406 435.789C89.5469 434.786 88.403 433.907 87.209 433.15C86.0241 432.394 84.8301 431.774 83.627 431.291C82.4238 430.799 81.2936 430.471 80.2363 430.307V447ZM124.342 447H111.723C110.365 447 109.13 446.745 108.018 446.234C106.906 445.724 105.953 445.027 105.16 444.143C104.376 443.258 103.77 442.219 103.342 441.025C102.913 439.831 102.699 438.555 102.699 437.197C102.699 435.848 102.913 434.581 103.342 433.396C103.77 432.202 104.376 431.163 105.16 430.279C105.953 429.386 106.906 428.684 108.018 428.174C109.13 427.654 110.365 427.395 111.723 427.395H124.342V430.197H111.723C110.757 430.197 109.886 430.384 109.111 430.758C108.346 431.122 107.694 431.624 107.156 432.262C106.628 432.891 106.217 433.629 105.926 434.477C105.643 435.324 105.502 436.231 105.502 437.197C105.502 438.163 105.643 439.075 105.926 439.932C106.217 440.779 106.628 441.522 107.156 442.16C107.694 442.789 108.346 443.286 109.111 443.65C109.886 444.015 110.757 444.197 111.723 444.197H124.342V447ZM148.746 427.395L148.719 437.197C148.719 438.109 148.6 438.984 148.363 439.822C148.135 440.652 147.807 441.431 147.379 442.16C146.96 442.88 146.449 443.541 145.848 444.143C145.255 444.735 144.594 445.245 143.865 445.674C143.145 446.093 142.37 446.421 141.541 446.658C140.712 446.886 139.846 447 138.943 447H136.879C135.977 447 135.106 446.886 134.268 446.658C133.438 446.421 132.659 446.089 131.93 445.66C131.21 445.232 130.553 444.721 129.961 444.129C129.368 443.527 128.858 442.867 128.43 442.146C128.01 441.417 127.682 440.638 127.445 439.809C127.217 438.97 127.104 438.1 127.104 437.197V427.395H129.906V437.197C129.906 438.163 130.089 439.075 130.453 439.932C130.818 440.779 131.314 441.522 131.943 442.16C132.581 442.789 133.324 443.286 134.172 443.65C135.02 444.015 135.922 444.197 136.879 444.197H138.943C139.91 444.197 140.816 444.015 141.664 443.65C142.512 443.286 143.25 442.789 143.879 442.16C144.508 441.522 145.005 440.779 145.369 439.932C145.734 439.075 145.916 438.163 145.916 437.197V427.395H148.719H148.746ZM155.596 447H152.793V427.395H154.188C155.099 427.395 156.065 427.513 157.086 427.75C158.116 427.987 159.164 428.329 160.23 428.775C161.297 429.222 162.359 429.764 163.416 430.402C164.482 431.031 165.512 431.747 166.506 432.549C167.499 433.351 168.434 434.226 169.309 435.174C170.184 436.113 170.967 437.115 171.66 438.182V427.395H174.463V447H171.66C171.66 445.56 171.41 444.174 170.908 442.844C170.407 441.504 169.737 440.242 168.898 439.057C168.06 437.872 167.094 436.783 166 435.789C164.906 434.786 163.762 433.907 162.568 433.15C161.383 432.394 160.189 431.774 158.986 431.291C157.783 430.799 156.653 430.471 155.596 430.307V447ZM181.982 447H179.18V427.395H180.574C181.486 427.395 182.452 427.513 183.473 427.75C184.503 427.987 185.551 428.329 186.617 428.775C187.684 429.222 188.745 429.764 189.803 430.402C190.869 431.031 191.899 431.747 192.893 432.549C193.886 433.351 194.82 434.226 195.695 435.174C196.57 436.113 197.354 437.115 198.047 438.182V427.395H200.85V447H198.047C198.047 445.56 197.796 444.174 197.295 442.844C196.794 441.504 196.124 440.242 195.285 439.057C194.447 437.872 193.48 436.783 192.387 435.789C191.293 434.786 190.149 433.907 188.955 433.15C187.77 432.394 186.576 431.774 185.373 431.291C184.17 430.799 183.04 430.471 181.982 430.307V447ZM225.842 447H205.566V427.395H225.842V430.197H208.369V444.197H225.842V447ZM223.463 438.605H209.764V435.803H223.463V438.605ZM242.398 450.5H239.609V423.197H242.398V450.5ZM280.01 434.395C280.01 435.361 279.823 436.272 279.449 437.129C279.085 437.977 278.583 438.719 277.945 439.357C277.316 439.986 276.578 440.483 275.73 440.848C274.883 441.212 273.976 441.395 273.01 441.395H261.758V438.633H273.01C273.593 438.633 274.14 438.523 274.65 438.305C275.161 438.077 275.603 437.771 275.977 437.389C276.359 437.006 276.66 436.559 276.879 436.049C277.098 435.529 277.207 434.978 277.207 434.395C277.207 433.811 277.098 433.264 276.879 432.754C276.66 432.243 276.359 431.801 275.977 431.428C275.603 431.045 275.161 430.744 274.65 430.525C274.14 430.307 273.593 430.197 273.01 430.197H260.186V447H257.383V427.395H273.01C273.976 427.395 274.883 427.581 275.73 427.955C276.578 428.32 277.316 428.821 277.945 429.459C278.583 430.088 279.085 430.826 279.449 431.674C279.823 432.521 280.01 433.428 280.01 434.395ZM301.68 447H282.949V427.395H285.752V444.197H301.68V447ZM326.617 447H323.814V441.395H308.174V438.605H323.814V430.197H313.766C312.809 430.197 311.906 430.384 311.059 430.758C310.211 431.122 309.473 431.624 308.844 432.262C308.215 432.891 307.714 433.629 307.34 434.477C306.975 435.324 306.793 436.231 306.793 437.197V447H303.99V437.197C303.99 436.295 304.104 435.429 304.332 434.6C304.569 433.761 304.897 432.982 305.316 432.262C305.745 431.533 306.255 430.872 306.848 430.279C307.449 429.678 308.11 429.163 308.83 428.734C309.559 428.306 310.339 427.978 311.168 427.75C311.997 427.513 312.863 427.395 313.766 427.395H326.617V447ZM353.223 441.395C353.223 442.178 353.036 442.912 352.662 443.596C352.298 444.27 351.796 444.863 351.158 445.373C350.529 445.874 349.791 446.271 348.943 446.562C348.096 446.854 347.189 447 346.223 447H330.568V444.197H346.223C346.797 444.197 347.339 444.124 347.85 443.979C348.36 443.833 348.802 443.632 349.176 443.377C349.559 443.122 349.859 442.826 350.078 442.488C350.306 442.142 350.42 441.777 350.42 441.395V440H337.568C336.602 440 335.691 439.818 334.834 439.453C333.986 439.089 333.243 438.592 332.605 437.963C331.977 437.325 331.48 436.582 331.115 435.734C330.751 434.878 330.568 433.966 330.568 433V427.395H333.371V433C333.371 433.583 333.48 434.13 333.699 434.641C333.918 435.151 334.214 435.598 334.588 435.98C334.971 436.354 335.417 436.65 335.928 436.869C336.438 437.088 336.985 437.197 337.568 437.197H350.42V427.395H353.223V441.395ZM376.492 447H357.762V427.395H360.564V444.197H376.492V447ZM381.947 447H379.145V427.395H381.947V447ZM408.307 441.395C408.307 442.178 408.161 442.912 407.869 443.596C407.577 444.27 407.176 444.863 406.666 445.373C406.165 445.874 405.572 446.271 404.889 446.562C404.214 446.854 403.49 447 402.715 447H385.68V444.197H402.715C403.107 444.197 403.471 444.124 403.809 443.979C404.146 443.833 404.438 443.632 404.684 443.377C404.939 443.122 405.139 442.826 405.285 442.488C405.431 442.142 405.504 441.777 405.504 441.395C405.504 441.012 405.431 440.652 405.285 440.314C405.139 439.977 404.939 439.681 404.684 439.426C404.438 439.171 404.146 438.97 403.809 438.824C403.471 438.678 403.107 438.605 402.715 438.605H391.285C390.52 438.605 389.795 438.46 389.111 438.168C388.428 437.876 387.831 437.48 387.32 436.979C386.819 436.468 386.418 435.871 386.117 435.188C385.826 434.504 385.68 433.775 385.68 433C385.68 432.234 385.826 431.51 386.117 430.826C386.418 430.143 386.819 429.55 387.32 429.049C387.831 428.538 388.428 428.137 389.111 427.846C389.795 427.545 390.52 427.395 391.285 427.395H406.912V430.197H391.285C390.902 430.197 390.538 430.27 390.191 430.416C389.854 430.562 389.558 430.762 389.303 431.018C389.048 431.273 388.847 431.574 388.701 431.92C388.555 432.257 388.482 432.617 388.482 433C388.482 433.383 388.555 433.747 388.701 434.094C388.847 434.431 389.048 434.727 389.303 434.982C389.558 435.238 389.854 435.438 390.191 435.584C390.538 435.73 390.902 435.803 391.285 435.803H402.715C403.49 435.803 404.214 435.953 404.889 436.254C405.572 436.546 406.165 436.947 406.666 437.457C407.176 437.958 407.577 438.551 407.869 439.234C408.161 439.909 408.307 440.629 408.307 441.395ZM422.238 447H419.436V430.197H409.523V427.395H432.15V430.197H422.238V447Z" fill="#AC0E0D"/>
<path d="M179 295.5V133L321.5 215.5L179 295.5Z" fill="#AC0E0D"/>
</g>
<defs>
<clipPath id="clip0">
<rect width="500" height="500" fill="white"/>
</clipPath>
</defs>
</svg>
