<svg width="20" height="20" viewBox="0 0 20 20" fill="none" xmlns="http://www.w3.org/2000/svg">
<path fill-rule="evenodd" clip-rule="evenodd" d="M7.56 0.299805C3.21652 1.3889 0 5.31883 0 10C0 14.6812 3.21652 18.6111 7.56 19.7002V0.299805Z" fill="#BD2929"/>
<path fill-rule="evenodd" clip-rule="evenodd" d="M7.83997 19.7661C8.53557 19.9193 9.25834 20 9.99997 20C15.5228 20 20 15.5228 20 10C20 4.47715 15.5228 0 9.99997 0C9.25834 0 8.53557 0.080732 7.83997 0.233887V19.7661Z" fill="#DE8C29"/>
<path fill-rule="evenodd" clip-rule="evenodd" d="M2.77894 6.92627H4.69994C5.8425 6.98905 6.26311 7.74238 6.26311 8.53338C6.30077 9.46877 6.17522 10.0149 5.42189 10.4104C5.02011 10.5611 4.57439 10.5611 3.83361 10.5611V12.526C3.8357 12.6558 3.73316 12.9341 3.46322 12.9341H2.81661C2.66594 12.9341 2.43994 12.8085 2.43994 12.6202V7.2841C2.45459 7.16483 2.5429 6.92627 2.77894 6.92627ZM3.89013 9.50016V7.9935C4.64974 7.93072 4.84435 8.24461 4.84435 8.70916C4.84435 9.21766 4.6058 9.5755 3.89013 9.50016Z" fill="white"/>
<path fill-rule="evenodd" clip-rule="evenodd" d="M10.0696 6.92001H11.8964C12.7816 6.96396 13.4219 7.22762 13.4533 8.35135V11.4777C13.4533 11.8041 13.3089 12.8211 11.9278 12.9278H10.101C9.86872 12.9278 9.69922 12.8023 9.69922 12.5888V7.27157C9.69922 7.13974 9.79966 6.92001 10.0696 6.92001ZM11.1243 11.8606V7.9935H11.5637C11.8964 8.01233 12.0471 8.23206 12.0597 8.51456V11.2831C12.0597 11.6346 11.8337 11.8606 11.5951 11.8606H11.1243Z" fill="white"/>
<path d="M16.5922 6.92627C16.3724 6.92627 16.2092 7.12088 16.2092 7.25271L16.2155 11.7476C16.1653 11.848 16.0586 11.9673 15.8012 11.961C15.5953 11.956 15.4852 11.7874 15.4559 11.7037V11.3082C15.4559 11.0947 15.2989 10.9378 15.0604 10.9378H14.4703C14.2192 10.9378 14.0811 11.1638 14.0811 11.3082V11.779C14.0811 12.0113 14.2443 13.0722 15.9393 13.0722C16.611 13.0722 17.5903 12.6139 17.5903 11.779V7.25271C17.5903 7.04555 17.3832 6.92627 17.2199 6.92627H16.5922Z" fill="white"/>
</svg>
