<svg width="20" height="20" viewBox="0 0 20 20" fill="none" xmlns="http://www.w3.org/2000/svg">
<path fill-rule="evenodd" clip-rule="evenodd" d="M4.1333 7.06668H7.7333C8.79997 7.06668 9.3333 8.00001 9.3333 8.60001C9.3333 9.46668 9.1333 9.80001 8.5333 10.2C9.1333 10.6667 9.46663 11.0667 9.46663 12.8H7.7333C7.70085 12.6378 7.68815 12.4518 7.675 12.2595C7.63414 11.6615 7.58905 11.0018 6.9333 10.8H5.86663V12.8H4.1333V7.06668ZM5.86667 8.40002V9.60002H7.13333C7.46667 9.53335 7.6 9.40002 7.6 9.00002C7.6 8.60002 7.33333 8.40002 7.13333 8.40002H5.86667Z" fill="#0054A6"/>
<path d="M12.1333 7.06668H9.73328V12.8H11.3333V9.06668L12.3333 12.8H13.5999L14.6666 9.06668V12.8H16.2666V7.06668H13.7999L12.9999 10.6L12.1333 7.06668Z" fill="#0B2473"/>
<path fill-rule="evenodd" clip-rule="evenodd" d="M10 20C15.5228 20 20 15.5228 20 10C20 4.47715 15.5228 0 10 0C4.47715 0 0 4.47715 0 10C0 15.5228 4.47715 20 10 20ZM9.93333 18C14.3884 18 18 14.3884 18 9.93333C18 5.47824 14.3884 1.86667 9.93333 1.86667C5.47824 1.86667 1.86667 5.47824 1.86667 9.93333C1.86667 14.3884 5.47824 18 9.93333 18Z" fill="url(#paint0_linear)"/>
<defs>
<linearGradient id="paint0_linear" x1="19.4667" y1="10" x2="-4.8439e-08" y2="10" gradientUnits="userSpaceOnUse">
<stop stop-color="#0B2675"/>
<stop offset="1" stop-color="#0053A5"/>
</linearGradient>
</defs>
</svg>
