<svg width="20" height="20" viewBox="0 0 20 20" fill="none" xmlns="http://www.w3.org/2000/svg">
<path fill-rule="evenodd" clip-rule="evenodd" d="M10 20C15.5228 20 20 15.5228 20 10C20 4.47715 15.5228 0 10 0C4.47715 0 0 4.47715 0 10C0 15.5228 4.47715 20 10 20ZM3.51002 6.07451C4.92836 5.22924 13.0086 4.51289 17.063 7.44987C17.7507 8.30946 16.7908 9.19771 16.1175 8.98282C12.7221 7.07736 8.03724 6.67622 4.1977 7.76505C2.67909 7.76505 2.99427 6.38188 3.51002 6.07451ZM15.659 10.788C12.937 8.78224 7.50716 8.13754 4.1404 9.36963C3.51003 9.84241 3.68195 10.788 4.61318 10.831C8.86819 9.74212 12.2493 10.5587 14.914 12.0487C15.659 12.2636 16.2607 11.3324 15.659 10.788ZM4.51289 12.5215C7.43552 11.6189 11.8768 11.8625 14.5272 13.6963C14.8854 14.0401 14.5272 14.9427 13.7966 14.6991C10.7593 12.9943 8.26647 13.0576 4.79942 13.6963C4.26933 13.7939 3.85386 12.8653 4.51289 12.5215Z" fill="#1ED760"/>
</svg>
