<svg width="20" height="20" viewBox="0 0 20 20" fill="none" xmlns="http://www.w3.org/2000/svg">
<circle cx="10" cy="10" r="10" fill="#2C2C2C"/>
<path d="M5.37072 6.33267H3.75749C3.34667 6.33267 3.30325 6.71343 3.34667 6.90381C3.44687 7.58518 3.75749 8.21978 3.97794 8.7475C4.3086 9.53908 4.86638 10.3841 5.23044 11.002C5.6112 11.6333 6.19236 12.3839 6.76351 12.8758C7.84567 13.8076 8.45689 13.9379 9.04808 14.1483C9.52102 14.3166 10.2805 14.2919 10.6012 14.2585C10.9218 14.2345 11.1022 14.0481 11.1523 13.8377V12.2746C11.1523 12.0241 11.2825 11.9247 11.4128 11.9138C11.8938 11.8738 12.1743 12.1744 12.4549 12.3748C12.7354 12.5752 13.8677 13.8176 14.1182 14.0481C14.3186 14.2325 14.5691 14.2852 14.6693 14.2886H16.2024C16.6533 14.2886 16.774 13.988 16.6533 13.6072C16.523 13.1964 15.6914 12.2245 15.511 12.0241C15.3667 11.8637 14.7361 11.2158 14.4389 10.9118C14.2986 10.7214 14.2401 10.5812 14.2986 10.4409C14.3387 10.3447 15.0501 9.31864 15.4008 8.81764L16.012 7.76554C16.3226 7.15432 16.4328 6.88377 16.4328 6.67335C16.3928 6.42285 16.2324 6.36273 16.012 6.33267H14.4288C14.1082 6.35271 14.003 6.49299 13.8978 6.67335C13.8417 6.76955 13.4536 7.58852 13.2665 7.98598C12.7154 8.97796 12.2244 9.57916 12.004 9.78959C11.7835 10 11.503 10.2405 11.3326 10.1804C11.1964 10.1323 11.1489 9.93989 11.1423 9.84971V6.78357C11.1423 6.54309 11.0421 6.36273 10.7815 6.33267H8.38675C8.07613 6.42285 8.05609 6.63327 8.07613 6.78357C8.21641 7.15432 8.54707 7.18438 8.63725 7.96594V10.501C8.63725 10.7214 8.50699 10.8417 8.33665 10.8116C7.15429 10.2104 6.09717 7.28458 5.87172 6.68337C5.77553 6.42686 5.49764 6.34269 5.37072 6.33267Z" fill="white"/>
</svg>
