<svg width="20" height="20" viewBox="0 0 20 20" fill="none" xmlns="http://www.w3.org/2000/svg">
<circle cx="10" cy="10" r="10" fill="#C4C4C4"/>
<circle cx="10" cy="10" r="10" fill="url(#paint0_linear)"/>
<path d="M10.02 4.63941C11.7575 4.63941 11.9633 4.64605 12.6494 4.67745C13.2838 4.70649 13.6284 4.81281 13.8577 4.90216C14.1614 5.02056 14.3782 5.16201 14.6059 5.39038C14.8336 5.61875 14.9746 5.83619 15.0926 6.14081C15.1817 6.37081 15.2877 6.71639 15.3167 7.35269C15.348 8.04091 15.3546 8.24731 15.3546 9.98998C15.3546 11.7326 15.348 11.939 15.3167 12.6272C15.2877 13.2636 15.1817 13.6091 15.0926 13.8391C14.9746 14.1438 14.8336 14.3612 14.6059 14.5896C14.3782 14.8179 14.1614 14.9594 13.8577 15.0778C13.6284 15.1671 13.2838 15.2735 12.6494 15.3025C11.9634 15.3339 11.7576 15.3405 10.02 15.3405C8.28249 15.3405 8.0767 15.3339 7.39067 15.3025C6.75624 15.2735 6.4117 15.1671 6.18242 15.0778C5.87869 14.9594 5.6619 14.8179 5.43421 14.5896C5.20652 14.3612 5.06549 14.1438 4.94748 13.8391C4.85837 13.6091 4.75236 13.2636 4.72341 12.6273C4.6921 11.939 4.68549 11.7326 4.68549 9.98998C4.68549 8.24731 4.6921 8.04091 4.72341 7.35272C4.75236 6.71639 4.85837 6.37081 4.94748 6.14081C5.06549 5.83619 5.20652 5.61875 5.43421 5.39038C5.6619 5.16201 5.87869 5.02056 6.18242 4.90216C6.4117 4.81281 6.75624 4.70649 7.39064 4.67745C8.07681 4.64605 8.28259 4.63941 10.02 4.63941ZM10.02 3.46344C8.25283 3.46344 8.03127 3.47095 7.33723 3.50272C6.64461 3.53443 6.17162 3.64474 5.7577 3.80609C5.32981 3.97288 4.96693 4.19604 4.60519 4.55887C4.24344 4.9217 4.02095 5.28567 3.85466 5.71484C3.69379 6.13 3.58381 6.60442 3.55219 7.29911C3.52053 7.99521 3.51306 8.21747 3.51306 9.98998C3.51306 11.7625 3.52053 11.9847 3.55219 12.6808C3.58381 13.3755 3.69379 13.85 3.85466 14.2651C4.02095 14.6943 4.24344 15.0583 4.60519 15.4211C4.96693 15.7839 5.32981 16.0071 5.7577 16.1739C6.17162 16.3352 6.64461 16.4455 7.33723 16.4772C8.03127 16.509 8.25283 16.5165 10.02 16.5165C11.7872 16.5165 12.0088 16.509 12.7029 16.4772C13.3955 16.4455 13.8685 16.3352 14.2824 16.1739C14.7103 16.0071 15.0732 15.7839 15.4349 15.4211C15.7966 15.0583 16.0191 14.6943 16.1854 14.2651C16.3463 13.85 16.4563 13.3755 16.4879 12.6808C16.5196 11.9847 16.527 11.7625 16.527 9.98998C16.527 8.21747 16.5196 7.99521 16.4879 7.29911C16.4563 6.60442 16.3463 6.13 16.1854 5.71484C16.0191 5.28567 15.7966 4.9217 15.4349 4.55887C15.0732 4.19604 14.7103 3.97288 14.2824 3.80609C13.8685 3.64474 13.3955 3.53443 12.7029 3.50272C12.0088 3.47095 11.7872 3.46344 10.02 3.46344ZM10.02 6.63851C8.17462 6.63851 6.6786 8.13902 6.6786 9.98998C6.6786 11.8409 8.17462 13.3414 10.02 13.3414C11.8655 13.3414 13.3615 11.8409 13.3615 9.98998C13.3615 8.13902 11.8655 6.63851 10.02 6.63851ZM10.02 12.1655C8.82214 12.1655 7.85103 11.1915 7.85103 9.98998C7.85103 8.78849 8.82214 7.81446 10.02 7.81446C11.2179 7.81446 12.189 8.78849 12.189 9.98998C12.189 11.1915 11.2179 12.1655 10.02 12.1655ZM14.2743 6.5061C14.2743 6.93864 13.9247 7.28929 13.4935 7.28929C13.0622 7.28929 12.7126 6.93864 12.7126 6.5061C12.7126 6.07355 13.0622 5.72293 13.4935 5.72293C13.9247 5.72293 14.2743 6.07355 14.2743 6.5061Z" fill="white"/>
<defs>
<linearGradient id="paint0_linear" x1="20" y1="0" x2="0" y2="20" gradientUnits="userSpaceOnUse">
<stop stop-color="#8656CC"/>
<stop offset="0.501809" stop-color="#D53988"/>
<stop offset="1" stop-color="#FAC673"/>
</linearGradient>
</defs>
</svg>
