<svg width="20" height="20" viewBox="0 0 20 20" fill="none" xmlns="http://www.w3.org/2000/svg">
<circle cx="10" cy="10" r="10" fill="#FE4600"/>
<path d="M8.98731 11.5249L8.9008 8.37002C8.9008 8.27197 8.82005 8.19699 8.72777 8.19699C8.62972 8.19699 8.55475 8.27197 8.55475 8.37002L8.474 11.5249L8.55475 13.0417C8.55475 13.1398 8.63549 13.2148 8.72777 13.2148C8.82582 13.2148 8.9008 13.1398 8.9008 13.0417L8.98731 11.5249Z" fill="white"/>
<path d="M8.36436 11.5249L8.26631 8.24892C8.26631 8.15664 8.19133 8.08743 8.10482 8.08743C8.0183 8.08743 7.94332 8.15664 7.94332 8.24892L7.85681 11.5191L7.94332 13.0475C7.94332 13.1398 8.0183 13.209 8.10482 13.209C8.19133 13.209 8.26631 13.1398 8.26631 13.0475L8.36436 11.5249Z" fill="white"/>
<path d="M9.53229 13.0244C9.53071 13.0244 9.52942 13.0257 9.52942 13.0273C9.52942 13.0289 9.53071 13.0302 9.53229 13.0302C9.53388 13.0302 9.53517 13.0289 9.53517 13.0273C9.53517 13.0257 9.53388 13.0244 9.53229 13.0244Z" fill="white"/>
<path d="M7.02052 8.272C7.01475 8.19702 6.95708 8.13358 6.8821 8.13358C6.80712 8.13358 6.74945 8.19125 6.74368 8.272L6.64563 11.5191L6.74368 13.0706C6.74368 13.1456 6.80712 13.2033 6.8821 13.2033C6.95708 13.2033 7.01475 13.1456 7.02052 13.0648L7.13587 11.5134L7.02052 8.272Z" fill="white"/>
<path d="M7.64341 8.16241C7.64341 8.08166 7.5742 8.01245 7.49346 8.01245C7.41271 8.01245 7.3435 8.07589 7.3435 8.16241L7.25122 11.5191L7.3435 13.0591C7.3435 13.1398 7.41271 13.209 7.49346 13.209C7.5742 13.209 7.63765 13.1456 7.64341 13.0591L7.74723 11.5191L7.64341 8.16241Z" fill="white"/>
<path d="M4.50005 13.1686C4.54619 13.1686 4.5808 13.134 4.58656 13.0821L4.73652 11.5191L4.58656 9.9042C4.5808 9.85806 4.54619 9.81769 4.50005 9.81769C4.45391 9.81769 4.41931 9.85229 4.41354 9.9042L4.28088 11.5191L4.41354 13.0821C4.41354 13.134 4.45391 13.1686 4.50005 13.1686Z" fill="white"/>
<path d="M9.61594 11.5249L9.5352 7.77596C9.5352 7.71252 9.50059 7.65484 9.44868 7.62024C9.41985 7.60294 9.38524 7.58563 9.34487 7.58563C9.31026 7.58563 9.27566 7.59717 9.24105 7.61447C9.18914 7.64908 9.15454 7.70675 9.15454 7.77019V7.8048L9.08533 11.5191L9.15454 13.0244V13.0302C9.15454 13.0706 9.17184 13.111 9.20068 13.1398C9.23528 13.1802 9.28719 13.209 9.34487 13.209C9.39678 13.209 9.44292 13.1859 9.47752 13.1571C9.51213 13.1225 9.5352 13.0763 9.5352 13.0244L9.54096 12.8745L9.61594 11.5249Z" fill="white"/>
<path d="M5.18648 10.0196C5.18071 9.96188 5.14034 9.92151 5.08843 9.92151C5.03652 9.92151 4.99038 9.96188 4.99038 10.0196L4.86926 11.5191L4.99038 13.0937C4.99615 13.1513 5.03652 13.1917 5.08843 13.1917C5.14034 13.1917 5.18648 13.1513 5.18648 13.0937L5.3249 11.5191L5.18648 10.0196Z" fill="white"/>
<path d="M5.68245 8.96985C5.62478 8.96985 5.57287 9.01599 5.57287 9.07943L5.45752 11.5191L5.57287 13.0937C5.57864 13.1571 5.62478 13.2032 5.68245 13.2032C5.74013 13.2032 5.79204 13.1571 5.79204 13.0937L5.92469 11.5191L5.79204 9.07943C5.79204 9.02176 5.74013 8.96985 5.68245 8.96985Z" fill="white"/>
<path d="M6.39766 13.0937L6.51878 11.5249L6.39766 8.52575C6.39189 8.45654 6.33998 8.40463 6.27077 8.40463C6.20156 8.40463 6.14965 8.45654 6.14389 8.52575L6.0343 11.5249L6.14389 13.0937C6.14389 13.1629 6.20156 13.2148 6.27077 13.2148C6.33998 13.2205 6.39189 13.1629 6.39766 13.0937Z" fill="white"/>
<path d="M10.0716 7.26266C10.0428 7.24536 10.0082 7.23383 9.96779 7.23383C9.92165 7.23383 9.87551 7.25113 9.8409 7.27997C9.79476 7.31457 9.76593 7.37225 9.76593 7.43569V7.45876L9.68518 11.5307L9.72555 12.2804L9.76593 13.0129C9.76593 13.1225 9.85821 13.209 9.96779 13.209C10.0774 13.209 10.1639 13.1167 10.1697 13.0072L10.2562 11.5249L10.1697 7.43569C10.1639 7.36071 10.1293 7.29727 10.0716 7.26266Z" fill="white"/>
<path d="M2.78713 12.3843C2.81597 12.3843 2.83904 12.3612 2.84481 12.3266L2.97169 11.5191L2.84481 10.7001C2.83904 10.6655 2.81597 10.6425 2.78713 10.6425C2.75829 10.6425 2.72946 10.6655 2.72946 10.7001L2.61987 11.5191L2.72946 12.3266C2.72946 12.3612 2.75829 12.3843 2.78713 12.3843Z" fill="white"/>
<path d="M3.33507 12.8745C3.36391 12.8745 3.39275 12.8514 3.39852 12.8168L3.56578 11.5191L3.39852 10.1926C3.39275 10.158 3.36968 10.1349 3.33507 10.1349C3.30624 10.1349 3.2774 10.158 3.27163 10.1926L3.12744 11.5191L3.27163 12.8168C3.2774 12.8514 3.30047 12.8745 3.33507 12.8745Z" fill="white"/>
<path d="M3.91189 13.111C3.95226 13.111 3.9811 13.0821 3.98686 13.036L4.14259 11.5191L3.98686 9.94458C3.9811 9.9042 3.95226 9.8696 3.91189 9.8696C3.87151 9.8696 3.84268 9.89844 3.83691 9.94458L3.69849 11.5191L3.83691 13.036C3.84268 13.0764 3.87151 13.111 3.91189 13.111Z" fill="white"/>
<path d="M15.5681 9.58697C15.3201 9.58697 15.0836 9.63888 14.8644 9.72539C14.7202 8.09317 13.3475 6.80701 11.675 6.80701C11.2655 6.80701 10.8675 6.88775 10.5157 7.02617C10.3773 7.07808 10.3427 7.13576 10.3427 7.23957V13.0014C10.3427 13.1109 10.4292 13.1975 10.5387 13.209H15.5738C16.5774 13.209 17.3906 12.4073 17.3906 11.4038C17.3848 10.4002 16.5716 9.58697 15.5681 9.58697Z" fill="white"/>
</svg>
