<svg width="20" height="20" viewBox="0 0 20 20" fill="none" xmlns="http://www.w3.org/2000/svg">
<path d="M10 20C15.5228 20 20 15.5228 20 10C20 4.47715 15.5228 0 10 0C4.47715 0 0 4.47715 0 10C0 15.5228 4.47715 20 10 20Z" fill="#27A7E5"/>
<path fill-rule="evenodd" clip-rule="evenodd" d="M4.15586 9.95639C7.2308 8.71726 9.28124 7.90035 10.3072 7.50566C13.2365 6.37874 13.8451 6.18299 14.2419 6.17652C14.3291 6.1751 14.5242 6.1951 14.6506 6.28995C14.7573 6.37004 14.7867 6.47822 14.8007 6.55416C14.8148 6.63009 14.8323 6.80306 14.8184 6.93822C14.6596 8.48089 13.9728 12.2245 13.6233 13.9524C13.4755 14.6835 13.1822 14.8399 12.9003 14.8639C12.2878 14.9161 11.8248 14.5782 11.2315 14.2185C10.3032 13.6556 9.74169 13.3959 8.84056 12.8466C7.79915 12.2118 8.71553 11.915 9.30902 11.3449C9.46435 11.1957 12.1181 8.80976 12.1067 8.738C12.1025 8.71194 12.0238 8.45467 11.9621 8.40397C11.9004 8.35327 11.8094 8.37061 11.7437 8.3844C11.6506 8.40394 10.1675 9.3106 7.29453 11.1044C6.87357 11.3717 6.49227 11.502 6.15064 11.4952C5.77403 11.4877 5.04957 11.2982 4.51101 11.1363C3.85045 10.9377 3.60661 10.8442 3.65233 10.5069C3.67614 10.3312 3.84398 10.1477 4.15586 9.95639V9.95639Z" fill="white"/>
</svg>
