<svg width="20" height="20" viewBox="0 0 20 20" fill="none" xmlns="http://www.w3.org/2000/svg">
<circle cx="10" cy="10" r="10" fill="#D4101D"/>
<path d="M15.5396 7.34417C15.4063 6.84934 15.0162 6.45919 14.5214 6.32597C13.6174 6.08807 10.0013 6.08807 10.0013 6.08807C10.0013 6.08807 6.38532 6.08807 5.48131 6.32597C4.98649 6.45919 4.59634 6.84934 4.46312 7.34417C4.22522 8.24817 4.22522 10.1228 4.22522 10.1228C4.22522 10.1228 4.22522 12.0069 4.46312 12.9014C4.59634 13.3962 4.98649 13.7864 5.48131 13.9196C6.38532 14.1575 10.0013 14.1575 10.0013 14.1575C10.0013 14.1575 13.6174 14.1575 14.5214 13.9196C15.0162 13.7864 15.4063 13.3962 15.5396 12.9014C15.7775 11.9974 15.7775 10.1228 15.7775 10.1228C15.7775 10.1228 15.7775 8.24817 15.5396 7.34417Z" fill="white"/>
<path d="M8.84045 11.8642L11.8475 10.1323L8.84045 8.3909V11.8642Z" fill="#D4101D"/>
</svg>
