<?xml version="1.0" standalone="no"?>
<!DOCTYPE svg PUBLIC "-//W3C//DTD SVG 20010904//EN"
 "http://www.w3.org/TR/2001/REC-SVG-20010904/DTD/svg10.dtd">
<svg version="1.0" xmlns="http://www.w3.org/2000/svg"
 width="800.000000pt" height="800.000000pt" viewBox="0 0 800.000000 800.000000"
 preserveAspectRatio="xMidYMid meet">
<metadata>
Created by potrace 1.11, written by Peter Selinger 2001-2013
</metadata>
<g transform="translate(0.000000,800.000000) scale(0.100000,-0.100000)"
fill="#000000" stroke="none">
<path d="M3738 7675 c-2 -2 -41 -6 -88 -9 -47 -4 -96 -8 -110 -10 -14 -2 -47
-7 -75 -11 -109 -14 -121 -16 -147 -21 -35 -7 -87 -15 -118 -19 -14 -1 -32 -5
-40 -8 -8 -3 -78 -22 -156 -41 -265 -66 -502 -155 -743 -278 -86 -44 -166 -85
-178 -92 -13 -6 -23 -14 -23 -18 0 -5 -5 -8 -11 -8 -6 0 -29 -12 -52 -27 -23
-16 -50 -32 -59 -38 -30 -17 -191 -129 -202 -140 -6 -6 -38 -31 -71 -57 -33
-25 -71 -56 -85 -68 -14 -12 -52 -45 -85 -73 -109 -95 -325 -319 -397 -413
-12 -16 -25 -31 -28 -34 -4 -3 -35 -43 -71 -90 -35 -47 -67 -86 -71 -88 -5 -2
-8 -8 -8 -13 0 -7 -56 -95 -70 -109 -3 -3 -11 -17 -19 -32 -8 -16 -18 -28 -23
-28 -4 0 -8 -4 -8 -10 0 -5 -17 -38 -38 -72 -99 -162 -236 -434 -287 -573 -11
-27 -23 -53 -28 -56 -5 -3 -7 -8 -6 -10 3 -3 -32 -111 -59 -179 -3 -8 -6 -18
-6 -22 -1 -3 -4 -10 -9 -14 -4 -4 -7 -18 -7 -30 0 -13 -5 -26 -11 -29 -5 -4
-8 -12 -6 -18 2 -7 0 -20 -5 -30 -5 -10 -11 -26 -13 -35 -3 -9 -16 -60 -30
-112 -15 -52 -28 -104 -30 -115 -3 -11 -12 -52 -21 -91 -8 -39 -17 -79 -19
-90 -2 -10 -4 -19 -5 -19 -1 0 -3 -12 -5 -26 -4 -28 -6 -42 -30 -190 -8 -52
-17 -124 -20 -160 -3 -35 -8 -80 -10 -99 -29 -237 -21 -801 15 -965 5 -27 13
-61 16 -75 3 -14 9 -42 15 -63 6 -21 12 -50 14 -65 2 -15 6 -36 9 -47 5 -21
65 -306 72 -340 2 -11 7 -33 11 -50 3 -16 8 -37 9 -45 35 -205 155 -604 240
-795 10 -22 18 -43 18 -47 1 -4 7 -13 14 -19 6 -7 12 -21 12 -31 0 -10 4 -18
8 -18 5 0 9 -6 9 -12 0 -7 14 -37 32 -66 17 -29 31 -55 31 -58 0 -11 119 -187
176 -259 105 -135 259 -285 400 -392 82 -62 125 -93 128 -93 3 0 31 -18 64
-40 33 -22 117 -69 187 -106 l126 -66 132 5 c73 3 143 8 157 11 14 3 39 8 55
12 70 13 212 75 227 98 4 6 8 7 8 3 0 -5 13 1 29 12 29 21 29 22 26 104 -5
106 -13 244 -20 332 -3 39 -8 104 -10 145 -2 41 -7 100 -9 130 -3 30 -8 91
-11 135 -12 153 -15 190 -29 340 -2 17 -7 68 -11 115 -9 105 -13 145 -15 145
-1 0 -3 18 -5 40 -8 92 -19 183 -31 265 -4 25 -8 59 -9 75 -1 17 -5 44 -8 60
-3 17 -9 55 -12 85 -4 30 -9 64 -11 75 -3 11 -6 36 -9 55 -3 19 -7 46 -10 60
-3 14 -7 39 -9 55 -15 107 -104 497 -125 550 -5 11 -23 61 -41 110 -85 236
-189 355 -297 339 -21 -3 -47 -8 -58 -11 -11 -4 -25 -8 -32 -9 -67 -12 -201
-71 -283 -123 -60 -40 -75 -51 -129 -98 -20 -18 -39 -33 -43 -33 -3 0 -19 -12
-35 -27 -88 -86 -209 -156 -290 -168 -42 -6 -54 1 -60 35 -25 143 -24 549 1
720 3 14 7 48 11 75 9 61 8 56 35 183 12 57 35 151 52 210 16 59 31 114 33
122 2 8 4 16 5 18 2 1 3 5 5 10 2 9 4 14 55 152 24 63 52 135 63 160 36 82
166 344 193 390 62 107 117 195 123 200 3 3 12 17 20 32 8 15 22 37 33 47 10
11 18 23 18 26 0 6 105 146 158 210 104 127 259 288 389 403 79 70 233 192
242 192 3 0 18 10 32 23 27 24 26 23 144 96 136 83 256 148 355 190 30 13 71
31 90 39 19 9 40 17 45 18 6 2 60 20 120 42 61 22 112 39 115 39 3 0 30 7 60
16 58 17 267 62 335 72 117 17 206 24 368 31 71 2 132 5 135 5 4 1 9 1 12 0 3
-1 48 -4 100 -6 141 -7 267 -21 395 -45 28 -5 64 -11 80 -14 17 -3 40 -7 53
-10 12 -3 30 -8 40 -10 9 -2 44 -11 77 -20 59 -17 78 -22 113 -31 31 -8 196
-66 232 -82 19 -8 51 -22 70 -30 170 -73 357 -181 549 -320 37 -27 131 -103
176 -143 59 -51 249 -245 287 -292 18 -22 45 -54 60 -71 15 -18 54 -68 85
-112 32 -44 66 -89 75 -99 10 -11 18 -25 18 -32 0 -7 4 -14 8 -16 9 -3 138
-213 162 -263 8 -16 22 -42 32 -57 10 -14 18 -33 18 -41 0 -9 4 -17 9 -19 6
-2 50 -86 56 -108 0 -3 11 -27 24 -55 31 -68 55 -128 84 -205 14 -36 28 -74
32 -85 5 -11 9 -23 10 -27 2 -5 4 -10 5 -13 1 -3 3 -8 4 -12 1 -5 9 -30 19
-58 9 -27 17 -53 17 -57 1 -4 8 -27 16 -50 9 -24 18 -54 20 -68 3 -14 7 -32
11 -40 3 -8 9 -31 14 -50 4 -19 15 -64 24 -100 8 -36 18 -78 21 -95 3 -16 7
-39 9 -50 15 -77 46 -270 51 -315 3 -30 7 -66 9 -80 13 -80 27 -543 18 -575
-5 -16 -43 -12 -83 8 -19 9 -93 74 -165 144 -148 144 -241 216 -335 260 -109
51 -161 64 -270 67 -105 3 -115 0 -136 -45 -11 -21 -22 -39 -26 -39 -5 0 -8
-9 -8 -20 0 -11 -4 -20 -9 -20 -5 0 -11 -8 -14 -17 -3 -10 -28 -74 -56 -142
-42 -101 -92 -238 -96 -261 0 -3 -13 -41 -27 -85 -27 -81 -59 -189 -64 -213
-1 -7 -14 -58 -29 -114 -15 -56 -28 -109 -30 -117 -2 -9 -15 -65 -28 -126 -14
-60 -28 -123 -31 -140 -10 -56 -23 -123 -32 -165 -3 -14 -7 -41 -10 -60 -6
-42 -12 -75 -14 -75 -1 0 -3 -9 -4 -20 -2 -11 -7 -45 -11 -75 -5 -30 -9 -62
-10 -70 -14 -114 -18 -148 -21 -165 -2 -11 -7 -47 -10 -80 -3 -33 -7 -76 -9
-95 -5 -41 -15 -177 -20 -270 -5 -81 -5 -436 0 -510 7 -110 16 -227 20 -246 2
-10 4 -22 4 -26 4 -31 126 -99 233 -128 91 -24 122 -28 278 -36 147 -7 130
-13 330 116 47 30 89 57 95 59 5 2 14 8 20 13 5 4 28 22 50 38 22 16 45 33 50
37 111 85 302 274 400 396 132 165 283 429 378 662 47 117 108 279 111 299 1
6 4 16 8 21 4 8 27 79 44 140 2 6 21 73 44 150 61 212 193 738 205 821 10 76
20 184 31 344 14 198 4 564 -21 770 -4 30 -8 73 -11 95 -4 35 -11 80 -38 235
-62 348 -196 749 -364 1090 -67 137 -230 414 -284 485 -5 6 -48 64 -97 130
-96 129 -132 173 -226 274 -61 65 -205 207 -260 255 -16 15 -39 35 -50 44 -50
45 -231 185 -252 195 -13 5 -23 13 -23 16 0 4 -16 15 -35 25 -19 11 -35 23
-35 28 0 4 -4 8 -9 8 -6 0 -30 14 -54 30 -25 17 -50 30 -56 30 -6 0 -11 4 -11
9 0 5 -8 11 -17 14 -10 4 -45 22 -78 42 -54 31 -184 96 -320 160 -27 13 -77
34 -110 46 -33 12 -71 26 -85 32 -14 6 -28 11 -32 12 -5 2 -10 4 -13 5 -3 1
-8 3 -12 4 -20 5 -60 18 -78 26 -22 10 -187 59 -220 65 -11 2 -54 12 -95 23
-41 10 -78 19 -82 20 -5 1 -9 2 -10 3 -3 1 -28 5 -75 12 -18 3 -40 8 -50 11
-10 3 -42 8 -72 11 -30 4 -63 9 -75 11 -23 5 -50 9 -146 19 -36 3 -83 9 -105
11 -44 6 -632 13 -637 9z"/>
</g>
</svg>
